<svg width="677" height="260" viewBox="0 0 677 260" fill="none" xmlns="http://www.w3.org/2000/svg">
<path d="M97.0036 51.8292C90.7569 48.3146 85.0996 45.0881 79.3833 42.0345C78.6761 41.6312 77.2618 41.804 76.4957 42.2073C57.5199 52.8086 38.6031 63.5252 19.7452 74.2994C18.8613 74.8179 18.0952 76.2007 18.0952 77.1802C18.0363 112.441 18.0363 147.702 17.9773 182.963C17.9773 184.864 18.9791 185.613 20.3935 186.42C55.5163 206.24 90.698 226.117 125.821 245.937C128.119 247.205 130.358 248.53 133.01 250.028C127.353 253.254 122.049 256.365 116.628 259.189C115.861 259.592 114.211 259.016 113.269 258.497C85.0406 242.653 56.8128 226.809 28.6438 210.907C19.981 206.009 11.3771 201.112 2.6553 196.33C1.00523 195.408 0.356995 194.428 0.356995 192.527C0.415925 150.928 0.415925 109.33 0.356995 67.7888C0.356995 65.7722 1.06417 64.7351 2.83209 63.8133C27.5831 49.9279 52.2751 36.0424 76.9671 22.0994C78.4993 21.2352 79.619 21.1199 81.2101 21.9842C114.035 40.5941 146.859 59.1464 179.684 77.6987C180.096 77.9292 180.509 78.2172 181.275 78.7358C175.323 82.0775 169.606 85.4192 163.831 88.4729C163.124 88.8186 161.592 88.1272 160.649 87.6086C146.623 79.7729 132.539 71.9371 118.631 63.9285C116.51 62.7186 114.978 62.6033 112.797 63.8709C94.5874 74.2994 76.3778 84.555 58.0503 94.8106C56.1645 95.8477 55.5163 96.9424 55.5163 99.0742C55.5752 119.874 55.5752 140.673 55.5163 161.472C55.5163 163.489 56.2235 164.526 57.9324 165.505C76.3778 175.818 94.8232 186.247 113.151 196.733C114.919 197.713 116.156 197.828 117.924 196.791C136.428 186.305 154.933 175.934 173.437 165.448C174.498 164.871 175.735 163.373 175.735 162.336C175.912 150.237 175.853 138.195 175.794 126.096C175.794 125.75 175.676 125.347 175.5 124.598C174.203 125.232 173.142 125.75 172.082 126.326C153.99 136.524 135.898 146.722 117.865 157.036C116.097 158.015 114.801 158.015 113.092 157.036C101.011 150.122 88.8712 143.266 76.6725 136.524C74.9045 135.545 74.3152 134.393 74.3152 132.491C74.4331 126.672 74.3742 120.795 74.3742 114.458C75.4939 115.034 76.3189 115.437 77.085 115.84C89.048 122.581 101.07 129.323 112.974 136.121C114.801 137.158 116.156 137.158 118.042 136.121C142.086 122.466 166.247 108.869 190.35 95.2715C191.352 94.6954 192.354 94.2344 193.945 93.4278V97.2305C193.945 121.832 193.886 146.492 194.004 171.094C194.004 173.629 193.297 175.012 190.998 176.279C173.024 186.305 155.168 196.445 137.253 206.585C136.369 207.104 135.427 207.622 133.953 208.487C137.843 210.676 141.555 212.289 144.62 214.652C150.336 219.146 155.109 218.569 161.297 214.824C177.385 205.087 193.945 196.157 210.387 187.054C212.685 185.786 213.451 184.346 213.451 181.811C213.392 147.414 213.392 113.017 213.451 78.6206C213.451 75.9126 212.39 74.5298 210.151 73.2623C173.673 52.8663 137.194 32.355 100.775 11.8438C100.009 11.4405 99.243 10.9795 98.0644 10.2881C103.899 7.00404 109.379 3.83517 114.978 0.89676C115.626 0.551065 116.981 1.24246 117.806 1.761C143.795 16.3954 169.724 31.0875 195.713 45.7795C206.379 51.8292 217.046 57.8788 227.83 63.8709C229.657 64.908 230.364 66.0603 230.364 68.1921C230.305 109.56 230.305 150.986 230.364 192.354C230.364 194.486 229.657 195.638 227.83 196.618C203.256 210.446 178.741 224.273 154.284 238.216C152.634 239.138 151.456 239.138 149.806 238.216C112.974 217.417 76.1421 196.618 39.2514 175.934C37.5424 174.954 36.8352 173.917 36.8352 171.901C36.8941 144.13 36.8941 116.301 36.8352 88.5305C36.8352 86.5139 37.5424 85.4768 39.2514 84.4974C57.461 74.2994 75.6117 64.0437 93.8214 53.8457C94.7053 53.212 95.5893 52.6358 97.0036 51.8292V51.8292Z" fill="url(#paint0_linear_979_4103)"/>
<path d="M594.948 26.819V11.1816L581.408 3.38574L567.868 11.1816V26.819L580.952 34.6149L594.948 26.819Z" fill="url(#paint1_linear_979_4103)"/>
<path d="M340.302 42.8215C334.011 36.8036 324.619 33.4299 316.459 33.4299C296.354 33.4299 284.136 48.7026 284.136 68.0327C284.136 83.4421 293.117 99.3986 316.459 99.3986C323.844 99.3986 330.273 97.803 337.658 91.8763V75.2359H313.678V59.4162H353.843V98.9427C344.588 109.52 332.917 115.811 316.459 115.811C281.218 115.811 266.857 92.6057 266.857 67.9415C266.857 41.5449 283.361 17.1543 316.459 17.1543C329.042 17.1543 341.67 21.9868 351.29 31.5151L340.302 42.8215Z" fill="#0E2240"/>
<path d="M382.245 47.6541L383.431 55.3132C388.537 47.1526 395.375 45.9216 402.077 45.9216C408.916 45.9216 415.481 48.6114 419.082 52.213L411.742 66.4371C408.414 63.6105 405.314 62.1517 399.934 62.1517C391.363 62.1517 383.431 66.7107 383.431 78.9288V113.759H367.064V47.6541H382.245Z" fill="#0E2240"/>
<path d="M490.932 80.7529C490.932 99.7639 477.939 115.219 456.466 115.219C434.994 115.219 422.137 99.8095 422.137 80.7529C422.137 61.833 435.267 46.2869 456.33 46.2869C477.392 46.2869 490.932 61.8786 490.932 80.7529ZM438.55 80.7529C438.55 90.8283 444.567 100.174 456.512 100.174C468.457 100.174 474.474 90.7827 474.474 80.7529C474.474 70.8143 467.499 61.1948 456.512 61.1948C444.704 61.1948 438.55 70.8599 438.55 80.7529Z" fill="#0E2240"/>
<path d="M569.347 47.5173L541.218 113.987H523.529L495.263 47.5173H513.089L522.207 69.3549L532.373 97.256L542.449 69.6285L551.567 47.5173H569.347Z" fill="#0E2240"/>
<path d="M577.279 47.3806V113.714H593.646V47.3806H577.279Z" fill="#0E2240"/>
<path d="M660.754 47.654H676.437V113.714H661.028L660.207 104.049C656.469 111.845 646.12 115.583 638.78 115.72C619.222 115.857 604.724 103.775 604.724 80.6155C604.724 57.8206 619.86 45.9216 639.19 46.0122C648.034 46.0122 656.469 50.1614 660.253 56.7264L660.754 47.654ZM621.091 80.6155C621.091 93.1984 629.799 100.721 640.649 100.721C666.362 100.721 666.362 60.6471 640.649 60.6471C629.799 60.6471 621.091 68.0327 621.091 80.6155V80.6155Z" fill="#0E2240"/>
<path d="M467.721 138.214C465.369 138.214 463.353 139.222 462.121 141.126V132.278H460.133V153.054H462.037V150.142C463.241 152.13 465.285 153.194 467.721 153.194C471.921 153.194 475.057 150.142 475.057 145.69C475.057 141.238 471.921 138.214 467.721 138.214ZM467.581 151.43C464.445 151.43 462.093 149.134 462.093 145.69C462.093 142.246 464.445 139.95 467.581 139.95C470.689 139.95 473.069 142.246 473.069 145.69C473.069 149.134 470.689 151.43 467.581 151.43Z" fill="#0E2240"/>
<path d="M483.571 150.842L478.027 138.326H475.955L482.535 153.026L481.891 154.454C481.051 156.302 480.155 156.918 478.839 156.918C477.775 156.918 476.879 156.526 476.151 155.798L475.227 157.282C476.123 158.178 477.439 158.626 478.811 158.626C480.911 158.626 482.479 157.702 483.711 154.818L491.075 138.326H489.115L483.571 150.842Z" fill="#0E2240"/>
<path fill-rule="evenodd" clip-rule="evenodd" d="M269.78 144.431L449.542 144.431V146.031L269.78 146.031V144.431Z" fill="#0E2240"/>
<path fill-rule="evenodd" clip-rule="evenodd" d="M496.595 144.431L676.357 144.431V146.031L496.595 146.031V144.431Z" fill="#0E2240"/>
<path d="M272.194 204.28L285.182 175.522C285.241 175.38 285.343 175.259 285.472 175.176C285.601 175.092 285.753 175.05 285.907 175.054H286.336C286.49 175.05 286.641 175.092 286.771 175.176C286.9 175.259 287.001 175.38 287.061 175.522L299.963 204.274C300.028 204.393 300.059 204.528 300.054 204.663C300.048 204.799 300.006 204.931 299.932 205.044C299.857 205.158 299.753 205.249 299.631 205.309C299.509 205.368 299.373 205.393 299.238 205.381H297.53C297.376 205.383 297.224 205.34 297.094 205.257C296.964 205.174 296.862 205.054 296.799 204.913L293.641 197.865H278.477L275.358 204.913C275.296 205.053 275.194 205.172 275.065 205.255C274.936 205.338 274.786 205.382 274.633 205.381H272.899C272.766 205.389 272.634 205.36 272.516 205.3C272.398 205.239 272.297 205.148 272.226 205.036C272.154 204.924 272.113 204.796 272.108 204.663C272.102 204.53 272.132 204.398 272.194 204.28V204.28ZM292.487 195.222C290.397 190.567 288.346 185.866 286.25 181.212H285.907L279.67 195.222H292.487Z" fill="#0E2240"/>
<path d="M326.19 175.06C330.013 175.016 333.71 176.431 336.528 179.016C336.612 179.09 336.68 179.181 336.728 179.283C336.776 179.384 336.803 179.494 336.807 179.606C336.811 179.718 336.793 179.83 336.753 179.935C336.713 180.04 336.652 180.135 336.574 180.216L335.42 181.37C335.077 181.798 334.761 181.752 334.306 181.324C332.036 179.356 329.153 178.237 326.15 178.159C319.399 178.159 314.23 183.842 314.23 190.461C314.23 197.081 319.399 202.724 326.15 202.724C329.862 202.724 332.044 201.228 334.306 199.52C334.435 199.381 334.609 199.293 334.797 199.27C334.985 199.247 335.176 199.291 335.334 199.395L336.613 200.549C336.761 200.707 336.839 200.917 336.832 201.134C336.824 201.35 336.732 201.554 336.574 201.702C333.795 204.4 330.063 205.891 326.19 205.849C324.144 205.892 322.109 205.525 320.207 204.771C318.304 204.018 316.57 202.892 315.108 201.46C313.646 200.027 312.485 198.318 311.692 196.431C310.899 194.544 310.49 192.518 310.49 190.471C310.49 188.425 310.899 186.398 311.692 184.512C312.485 182.625 313.646 180.915 315.108 179.483C316.57 178.051 318.304 176.925 320.207 176.171C322.109 175.417 324.144 175.051 326.19 175.093V175.06Z" fill="#0E2240"/>
<path d="M364.765 175.06C369.077 175.06 372.195 176.557 375.103 179.016C375.186 179.091 375.254 179.182 375.301 179.283C375.349 179.385 375.375 179.495 375.379 179.607C375.383 179.719 375.364 179.831 375.323 179.936C375.282 180.04 375.221 180.136 375.142 180.216L373.989 181.369C373.652 181.798 373.329 181.752 372.881 181.323C370.609 179.354 367.724 178.236 364.719 178.159C357.948 178.159 352.805 183.815 352.805 190.435C352.805 197.054 357.974 202.698 364.719 202.698C368.437 202.698 370.653 201.201 372.881 199.493C373.009 199.355 373.182 199.267 373.369 199.244C373.556 199.221 373.745 199.265 373.903 199.368L375.188 200.522C375.262 200.6 375.319 200.693 375.356 200.793C375.394 200.894 375.411 201.001 375.407 201.108C375.402 201.216 375.377 201.321 375.331 201.419C375.286 201.516 375.222 201.603 375.142 201.676C372.371 204.384 368.64 205.884 364.765 205.849C362.719 205.891 360.685 205.525 358.782 204.771C356.879 204.017 355.146 202.891 353.684 201.459C352.221 200.027 351.06 198.317 350.267 196.431C349.474 194.544 349.065 192.518 349.065 190.471C349.065 188.424 349.474 186.398 350.267 184.511C351.06 182.625 352.221 180.915 353.684 179.483C355.146 178.051 356.879 176.925 358.782 176.171C360.685 175.417 362.719 175.051 364.765 175.093V175.06Z" fill="#0E2240"/>
<path d="M390.253 176.3C390.261 176.096 390.346 175.903 390.49 175.759C390.634 175.615 390.827 175.53 391.031 175.522H407.863C407.97 175.521 408.075 175.541 408.174 175.582C408.273 175.622 408.363 175.682 408.438 175.758C408.514 175.833 408.573 175.923 408.614 176.022C408.654 176.12 408.675 176.226 408.674 176.333V177.572C408.674 177.787 408.588 177.994 408.436 178.146C408.284 178.298 408.078 178.383 407.863 178.383H393.51V188.774H405.773C405.986 188.78 406.188 188.868 406.339 189.019C406.49 189.169 406.577 189.372 406.584 189.585V190.824C406.584 191.039 406.498 191.246 406.346 191.398C406.194 191.55 405.988 191.635 405.773 191.635H393.51V202.553H407.863C407.969 202.553 408.075 202.574 408.173 202.615C408.272 202.655 408.361 202.715 408.436 202.791C408.512 202.866 408.571 202.955 408.612 203.054C408.653 203.152 408.674 203.257 408.674 203.364V204.603C408.675 204.71 408.654 204.816 408.614 204.915C408.573 205.014 408.514 205.103 408.438 205.179C408.363 205.254 408.273 205.314 408.174 205.354C408.075 205.395 407.97 205.415 407.863 205.414H391.031C390.816 205.414 390.61 205.329 390.458 205.177C390.306 205.025 390.22 204.818 390.22 204.603L390.253 176.3Z" fill="#0E2240"/>
<path d="M424.009 176.3C424.018 176.091 424.107 175.893 424.258 175.748C424.409 175.603 424.61 175.522 424.82 175.522H426.514C426.727 175.529 426.93 175.616 427.08 175.767C427.231 175.917 427.319 176.12 427.325 176.333V202.553H439.628C439.843 202.553 440.049 202.638 440.201 202.79C440.353 202.943 440.439 203.149 440.439 203.364V204.603C440.439 204.71 440.419 204.816 440.379 204.915C440.338 205.014 440.279 205.103 440.203 205.179C440.128 205.254 440.038 205.314 439.939 205.354C439.84 205.395 439.734 205.415 439.628 205.414H424.82C424.605 205.414 424.399 205.329 424.247 205.177C424.094 205.025 424.009 204.818 424.009 204.603V176.3Z" fill="#0E2240"/>
<path d="M453.486 176.3C453.494 176.091 453.584 175.893 453.735 175.748C453.886 175.603 454.087 175.522 454.297 175.522H471.129C471.344 175.522 471.55 175.607 471.702 175.759C471.854 175.912 471.94 176.118 471.94 176.333V177.572C471.938 177.787 471.852 177.992 471.7 178.144C471.548 178.296 471.343 178.382 471.129 178.383H456.776V188.774H469.039C469.251 188.782 469.453 188.87 469.603 189.02C469.753 189.171 469.841 189.372 469.85 189.585V190.824C469.848 191.039 469.762 191.244 469.61 191.396C469.458 191.547 469.253 191.633 469.039 191.635H456.776V202.553H471.129C471.343 202.555 471.548 202.641 471.7 202.792C471.852 202.944 471.938 203.149 471.94 203.364V204.603C471.94 204.818 471.854 205.025 471.702 205.177C471.55 205.329 471.344 205.414 471.129 205.414H454.297C454.082 205.414 453.876 205.329 453.723 205.177C453.571 205.025 453.486 204.818 453.486 204.603V176.3Z" fill="#0E2240"/>
<path d="M487.275 176.3C487.283 176.091 487.372 175.893 487.524 175.748C487.675 175.603 487.876 175.522 488.086 175.522H499.149C500.359 175.505 501.56 175.726 502.684 176.175C503.808 176.623 504.832 177.289 505.698 178.135C506.563 178.98 507.253 179.988 507.728 181.101C508.203 182.214 508.453 183.41 508.464 184.62C508.464 188.576 505.86 191.872 502.142 193.336L507.996 204.181C508.075 204.307 508.117 204.451 508.119 204.599C508.121 204.747 508.083 204.893 508.008 205.02C507.934 205.148 507.826 205.253 507.696 205.323C507.566 205.394 507.419 205.428 507.271 205.421H505.089C504.955 205.423 504.822 205.389 504.706 205.321C504.59 205.254 504.494 205.156 504.43 205.038L498.753 193.718H490.565V204.61C490.558 204.823 490.47 205.025 490.32 205.176C490.169 205.327 489.967 205.414 489.754 205.421H488.086C487.871 205.421 487.664 205.335 487.512 205.183C487.36 205.031 487.275 204.825 487.275 204.61V176.3ZM498.938 190.864C499.759 190.891 500.578 190.752 501.345 190.456C502.112 190.16 502.812 189.713 503.403 189.142C503.993 188.57 504.463 187.885 504.784 187.128C505.105 186.371 505.27 185.558 505.27 184.736C505.27 183.913 505.105 183.1 504.784 182.343C504.463 181.586 503.993 180.901 503.403 180.329C502.812 179.758 502.112 179.311 501.345 179.015C500.578 178.719 499.759 178.58 498.938 178.607H490.65V190.864H498.938Z" fill="#0E2240"/>
<path d="M519.91 204.28L532.898 175.522C532.957 175.38 533.059 175.259 533.188 175.176C533.317 175.092 533.469 175.05 533.623 175.054H534.051C534.205 175.05 534.357 175.092 534.486 175.176C534.616 175.259 534.717 175.38 534.777 175.522L547.679 204.274C547.744 204.393 547.775 204.528 547.77 204.663C547.764 204.799 547.722 204.931 547.647 205.044C547.573 205.158 547.469 205.249 547.347 205.309C547.225 205.368 547.089 205.393 546.954 205.381H545.246C545.092 205.383 544.94 205.34 544.81 205.257C544.68 205.174 544.577 205.054 544.514 204.913L541.356 197.865H526.193L523.074 204.913C523.011 205.054 522.908 205.174 522.778 205.257C522.648 205.34 522.497 205.383 522.342 205.381H520.635C520.5 205.392 520.366 205.367 520.244 205.308C520.123 205.249 520.02 205.158 519.946 205.046C519.872 204.933 519.829 204.803 519.823 204.668C519.817 204.533 519.846 204.4 519.91 204.28V204.28ZM540.203 195.222C538.106 190.567 536.056 185.866 533.966 181.212H533.623L527.386 195.222H540.203Z" fill="#0E2240"/>
<path d="M563.397 178.35H555.966C555.751 178.35 555.545 178.265 555.393 178.113C555.241 177.961 555.155 177.755 555.155 177.539V176.3C555.162 176.09 555.251 175.891 555.402 175.746C555.554 175.601 555.756 175.52 555.966 175.522H574.077C574.292 175.522 574.498 175.607 574.651 175.76C574.803 175.912 574.888 176.118 574.888 176.333V177.572C574.886 177.787 574.8 177.992 574.649 178.144C574.497 178.296 574.292 178.382 574.077 178.383H566.647V204.61C566.639 204.822 566.551 205.024 566.4 205.174C566.25 205.325 566.048 205.413 565.836 205.421H564.207C563.994 205.414 563.792 205.327 563.641 205.176C563.491 205.025 563.403 204.823 563.397 204.61V178.35Z" fill="#0E2240"/>
<path d="M588.087 176.3C588.103 176.093 588.195 175.9 588.344 175.756C588.494 175.613 588.691 175.529 588.898 175.522H590.606C590.819 175.528 591.022 175.616 591.174 175.766C591.326 175.917 591.415 176.119 591.423 176.333V204.61C591.415 204.824 591.326 205.026 591.174 205.177C591.022 205.327 590.819 205.414 590.606 205.421H588.898C588.686 205.413 588.484 205.325 588.334 205.174C588.183 205.024 588.095 204.822 588.087 204.61V176.3Z" fill="#0E2240"/>
<path d="M621.79 175.06C624.833 175.051 627.809 175.944 630.344 177.627C632.879 179.31 634.857 181.707 636.03 184.514C637.202 187.322 637.515 190.414 636.93 193.399C636.345 196.385 634.888 199.13 632.743 201.287C630.597 203.445 627.86 204.917 624.878 205.519C621.896 206.121 618.802 205.824 615.988 204.668C613.174 203.511 610.767 201.546 609.07 199.02C607.373 196.495 606.463 193.523 606.455 190.481C606.446 188.461 606.836 186.458 607.603 184.589C608.369 182.72 609.497 181.02 610.922 179.588C612.347 178.155 614.04 177.018 615.905 176.241C617.77 175.464 619.77 175.063 621.79 175.06ZM621.79 202.83C624.246 202.84 626.649 202.121 628.695 200.763C630.742 199.405 632.338 197.471 633.283 195.204C634.228 192.937 634.478 190.441 634.002 188.032C633.526 185.623 632.345 183.41 630.609 181.673C628.874 179.936 626.661 178.754 624.252 178.277C621.843 177.799 619.347 178.048 617.08 178.992C614.813 179.936 612.877 181.531 611.518 183.577C610.16 185.622 609.439 188.025 609.448 190.481C609.467 193.749 610.773 196.878 613.084 199.189C615.394 201.501 618.522 202.809 621.79 202.83V202.83Z" fill="#0E2240"/>
<path d="M652.21 175.825C652.22 175.617 652.31 175.422 652.461 175.279C652.613 175.137 652.813 175.058 653.021 175.06H654.089L673.353 199.065H673.439V176.3C673.448 176.09 673.537 175.892 673.688 175.747C673.839 175.602 674.041 175.521 674.25 175.522H675.727C675.94 175.528 676.142 175.616 676.293 175.766C676.444 175.917 676.531 176.12 676.538 176.333V205.078C676.529 205.286 676.44 205.484 676.288 205.628C676.137 205.771 675.936 205.851 675.727 205.849H674.955L655.368 181.337H655.328V204.577C655.328 204.684 655.307 204.79 655.266 204.888C655.225 204.987 655.165 205.077 655.089 205.152C655.013 205.228 654.922 205.287 654.823 205.328C654.724 205.368 654.618 205.388 654.511 205.388H653.021C652.808 205.381 652.605 205.293 652.455 205.143C652.304 204.992 652.217 204.79 652.21 204.577V175.825Z" fill="#0E2240"/>
<path d="M272.46 217.914C272.462 217.786 272.514 217.663 272.605 217.572C272.696 217.481 272.819 217.429 272.947 217.427H281.069C283.319 217.427 285.476 218.321 287.067 219.912C288.658 221.502 289.552 223.66 289.552 225.91C289.552 228.16 288.658 230.317 287.067 231.908C285.476 233.499 283.319 234.393 281.069 234.393H274.22V243.299C274.22 243.57 273.994 243.796 273.615 243.796H272.938C272.808 243.793 272.684 243.74 272.593 243.647C272.502 243.554 272.451 243.429 272.451 243.299L272.46 217.914ZM280.961 232.66C282.77 232.646 284.5 231.918 285.775 230.636C287.051 229.353 287.769 227.619 287.774 225.81C287.738 224.026 286.998 222.329 285.714 221.09C284.431 219.85 282.709 219.169 280.925 219.196H274.229V232.66H280.961Z" fill="#0E2240" stroke="#0E2240"/>
<path d="M297.556 243.299L309.161 217.129C309.209 217.051 309.275 216.987 309.354 216.941C309.433 216.895 309.522 216.87 309.613 216.867H309.73C309.828 216.856 309.927 216.875 310.014 216.922C310.101 216.969 310.172 217.041 310.217 217.129L321.687 243.299C321.768 243.524 321.768 243.75 321.353 243.75H320.351C320.24 243.747 320.131 243.713 320.037 243.653C319.944 243.592 319.868 243.507 319.819 243.407L316.778 236.486H302.402L299.397 243.407C299.348 243.507 299.272 243.592 299.179 243.653C299.085 243.713 298.976 243.747 298.865 243.75H297.818C297.556 243.759 297.43 243.606 297.556 243.299ZM316.137 235.024L309.703 219.836H309.631L303.079 234.997L316.137 235.024Z" fill="#0E2240" stroke="#0E2240"/>
<path d="M333.4 217.914C333.399 217.85 333.411 217.786 333.435 217.726C333.459 217.667 333.495 217.613 333.54 217.567C333.586 217.522 333.64 217.486 333.699 217.462C333.759 217.438 333.823 217.426 333.887 217.427H343.218C345.255 217.294 347.266 217.938 348.846 219.229C350.427 220.519 351.459 222.361 351.736 224.383C352.013 226.405 351.514 228.456 350.338 230.124C349.163 231.792 347.399 232.953 345.402 233.373L350.898 243.119C351.078 243.417 351.006 243.796 350.627 243.796H349.463C349.351 243.801 349.24 243.771 349.146 243.709C349.052 243.648 348.98 243.558 348.94 243.453L343.453 233.562C342.966 233.562 342.551 233.562 342.063 233.562H335.142V243.299C335.142 243.57 334.916 243.796 334.537 243.796H333.86C333.73 243.793 333.606 243.74 333.515 243.647C333.424 243.554 333.373 243.429 333.373 243.299L333.4 217.914ZM343.146 232.019C344.014 232.031 344.876 231.871 345.682 231.548C346.487 231.225 347.221 230.745 347.84 230.137C348.46 229.528 348.952 228.803 349.29 228.003C349.627 227.204 349.803 226.345 349.806 225.477C349.784 224.621 349.593 223.779 349.244 222.998C348.895 222.217 348.395 221.512 347.772 220.925C347.15 220.338 346.418 219.88 345.618 219.577C344.817 219.274 343.965 219.132 343.11 219.16H335.205V232.019H343.146Z" fill="#0E2240" stroke="#0E2240"/>
<path d="M369.253 219.042H362.034C361.655 219.042 361.547 218.817 361.547 218.483V217.914C361.545 217.85 361.557 217.786 361.581 217.726C361.605 217.667 361.641 217.613 361.687 217.567C361.732 217.522 361.786 217.486 361.846 217.462C361.906 217.438 361.97 217.426 362.034 217.427H378.205C378.27 217.426 378.334 217.438 378.393 217.462C378.453 217.486 378.507 217.522 378.553 217.567C378.598 217.613 378.634 217.667 378.658 217.726C378.682 217.786 378.694 217.85 378.693 217.914V218.555C378.694 218.619 378.682 218.683 378.658 218.743C378.634 218.803 378.598 218.857 378.553 218.902C378.507 218.948 378.453 218.984 378.393 219.008C378.334 219.032 378.27 219.044 378.205 219.042H370.986V243.299C370.986 243.57 370.76 243.796 370.381 243.796H369.705C369.575 243.793 369.451 243.74 369.359 243.647C369.268 243.554 369.217 243.43 369.217 243.299L369.253 219.042Z" fill="#0E2240" stroke="#0E2240"/>
<path d="M390.541 217.535C390.546 217.465 390.564 217.397 390.595 217.335C390.627 217.272 390.67 217.217 390.723 217.171C390.776 217.126 390.838 217.092 390.904 217.07C390.97 217.049 391.04 217.041 391.11 217.047H391.751L409.799 240.556V217.914C409.801 217.785 409.853 217.663 409.944 217.572C410.035 217.481 410.158 217.429 410.286 217.426H411.035C411.164 217.429 411.286 217.481 411.377 217.572C411.468 217.663 411.52 217.785 411.523 217.914V243.642C411.523 243.985 411.225 244.129 410.927 244.129H410.44C410.44 244.129 410.097 244.021 392.229 220.395V243.299C392.229 243.429 392.178 243.554 392.087 243.647C391.996 243.739 391.872 243.793 391.742 243.795H391.029C390.897 243.795 390.771 243.743 390.678 243.65C390.585 243.557 390.532 243.43 390.532 243.299L390.541 217.535Z" fill="#0E2240" stroke="#0E2240"/>
<path d="M427.071 217.914C427.074 217.786 427.126 217.663 427.217 217.572C427.308 217.481 427.43 217.429 427.559 217.427H442.647C442.776 217.429 442.898 217.481 442.989 217.572C443.08 217.663 443.132 217.786 443.134 217.914V218.555C443.132 218.684 443.08 218.806 442.989 218.897C442.898 218.988 442.776 219.04 442.647 219.042H428.876V229.429H440.797C440.927 229.429 441.052 229.48 441.145 229.571C441.238 229.662 441.291 229.786 441.294 229.916V230.557C441.291 230.687 441.238 230.811 441.145 230.902C441.052 230.993 440.927 231.045 440.797 231.045H428.876V242.18H442.647C442.776 242.183 442.898 242.235 442.989 242.326C443.08 242.417 443.132 242.539 443.134 242.668V243.299C443.134 243.429 443.083 243.554 442.992 243.647C442.901 243.74 442.777 243.793 442.647 243.796H427.559C427.429 243.793 427.305 243.74 427.214 243.647C427.122 243.554 427.071 243.429 427.071 243.299V217.914Z" fill="#0E2240" stroke="#0E2240"/>
<path d="M457.095 217.914C457.093 217.849 457.103 217.785 457.127 217.725C457.151 217.664 457.186 217.61 457.232 217.564C457.278 217.518 457.333 217.482 457.393 217.459C457.453 217.435 457.518 217.424 457.582 217.427H466.913C468.948 217.297 470.957 217.943 472.535 219.235C474.113 220.526 475.143 222.367 475.419 224.388C475.694 226.408 475.195 228.458 474.02 230.125C472.846 231.792 471.084 232.952 469.088 233.372L474.584 243.119C474.774 243.416 474.692 243.795 474.322 243.795H473.149C473.037 243.799 472.927 243.769 472.833 243.707C472.739 243.646 472.667 243.557 472.626 243.452L467.211 233.598C466.724 233.598 466.309 233.598 465.812 233.598H458.9V243.299C458.894 243.372 458.874 243.443 458.84 243.508C458.807 243.573 458.76 243.63 458.704 243.676C458.647 243.723 458.582 243.757 458.512 243.778C458.441 243.798 458.368 243.804 458.295 243.795H457.619C457.488 243.793 457.364 243.74 457.273 243.647C457.182 243.554 457.131 243.429 457.131 243.299L457.095 217.914ZM466.832 232.019C467.7 232.031 468.562 231.871 469.368 231.547C470.173 231.224 470.907 230.745 471.526 230.136C472.146 229.528 472.638 228.803 472.976 228.003C473.313 227.203 473.489 226.344 473.492 225.476C473.47 224.621 473.279 223.779 472.93 222.997C472.581 222.216 472.081 221.512 471.458 220.925C470.836 220.338 470.104 219.879 469.304 219.576C468.503 219.273 467.651 219.132 466.796 219.159H458.9V232.019H466.832Z" fill="#0E2240" stroke="#0E2240"/>
<path d="M487.489 240.257L487.822 239.806C488.093 239.508 488.355 239.391 488.653 239.653C490.555 241.413 493.021 242.44 495.61 242.55C499.04 242.55 501.927 240.257 501.927 237.514C501.927 234.166 499.175 232.659 494.627 231.116C490.259 229.573 487.407 228.03 487.407 223.707C487.407 220.882 489.663 217.047 495.529 217.047C497.822 217.075 500.063 217.741 501.999 218.969C502.064 219.008 502.12 219.06 502.163 219.122C502.206 219.185 502.235 219.255 502.249 219.329C502.262 219.404 502.26 219.48 502.242 219.553C502.224 219.626 502.19 219.695 502.144 219.754C502.034 219.91 501.934 220.073 501.846 220.242C501.811 220.316 501.76 220.381 501.696 220.432C501.632 220.484 501.557 220.52 501.477 220.538C501.397 220.556 501.314 220.556 501.234 220.538C501.154 220.519 501.08 220.483 501.016 220.431C499.369 219.347 497.462 218.724 495.493 218.626C490.864 218.626 489.131 221.487 489.131 223.635C489.131 226.829 491.577 228.219 495.376 229.464C500.529 231.269 503.804 233.074 503.804 237.397C503.804 241.16 499.924 244.093 495.601 244.093C492.66 244.055 489.829 242.963 487.624 241.015C487.371 240.862 487.191 240.672 487.489 240.257Z" fill="#0E2240" stroke="#0E2240"/>
<path d="M513.496 218.328C514.185 218.326 514.86 218.529 515.434 218.911C516.008 219.292 516.456 219.836 516.721 220.472C516.986 221.109 517.056 221.809 516.923 222.485C516.789 223.162 516.458 223.783 515.971 224.271C515.485 224.759 514.864 225.092 514.188 225.227C513.512 225.362 512.811 225.294 512.174 225.031C511.537 224.767 510.993 224.321 510.61 223.748C510.226 223.175 510.022 222.501 510.022 221.811C510.024 220.89 510.391 220.007 511.042 219.354C511.692 218.702 512.575 218.333 513.496 218.328V218.328ZM513.496 224.456C514.02 224.459 514.533 224.307 514.97 224.019C515.407 223.73 515.749 223.319 515.952 222.836C516.155 222.353 516.21 221.821 516.11 221.307C516.01 220.793 515.759 220.32 515.39 219.948C515.021 219.577 514.55 219.323 514.037 219.22C513.523 219.116 512.991 219.167 512.507 219.367C512.022 219.567 511.608 219.905 511.317 220.341C511.026 220.776 510.87 221.288 510.87 221.811C510.87 222.51 511.146 223.179 511.638 223.675C512.13 224.17 512.798 224.451 513.496 224.456ZM512.161 220.214C512.161 220.164 512.181 220.116 512.216 220.08C512.252 220.045 512.3 220.025 512.35 220.025H513.92C514.082 220.028 514.241 220.064 514.389 220.129C514.536 220.195 514.67 220.289 514.78 220.407C514.891 220.525 514.978 220.663 515.035 220.814C515.091 220.966 515.118 221.127 515.112 221.288C515.118 221.512 515.06 221.733 514.945 221.924C514.83 222.116 514.662 222.271 514.462 222.371L514.85 223.273C514.862 223.302 514.866 223.333 514.863 223.364C514.86 223.394 514.85 223.424 514.833 223.449C514.816 223.475 514.793 223.497 514.766 223.511C514.739 223.526 514.709 223.534 514.678 223.535H514.011C513.972 223.533 513.934 223.519 513.903 223.495C513.873 223.47 513.85 223.437 513.839 223.4L513.478 222.371H513.108V223.355C513.108 223.379 513.103 223.403 513.094 223.426C513.084 223.448 513.07 223.469 513.052 223.486C513.034 223.502 513.013 223.516 512.99 223.524C512.968 223.533 512.943 223.536 512.919 223.535H512.341C512.317 223.536 512.292 223.533 512.269 223.524C512.246 223.516 512.225 223.502 512.208 223.486C512.19 223.469 512.176 223.448 512.166 223.426C512.156 223.403 512.152 223.379 512.152 223.355L512.161 220.214ZM513.749 221.622C513.833 221.622 513.913 221.589 513.972 221.529C514.031 221.47 514.065 221.39 514.065 221.306C514.065 221.222 514.031 221.142 513.972 221.083C513.913 221.024 513.833 220.99 513.749 220.99H513.108V221.622H513.749Z" fill="#0E2240"/>
<defs>
<linearGradient id="paint0_linear_979_4103" x1="236.008" y1="42.2834" x2="103.413" y2="118.844" gradientUnits="userSpaceOnUse">
<stop offset="0.2354" stop-color="#E16562"/>
<stop offset="0.5558" stop-color="#F0523B"/>
<stop offset="1" stop-color="#CB2A28"/>
</linearGradient>
<linearGradient id="paint1_linear_979_4103" x1="622.38" y1="8.324" x2="571.978" y2="18.1585" gradientUnits="userSpaceOnUse">
<stop stop-color="#E16562"/>
<stop offset="0.5558" stop-color="#F0523B"/>
<stop offset="1" stop-color="#CB2A28"/>
</linearGradient>
</defs>
</svg>
