<svg version="1.2" xmlns="http://www.w3.org/2000/svg" viewBox="0 0 1475 1710" width="1475" height="1710">
	<title>z-logo-default (1)-svg</title>
	<style>
		.s0 { fill: #006aff }
	</style>
	<path id="Layer" fill-rule="evenodd" class="s0" d="m0.1 889.4v-274.9l738.1-614.5 736.6 614.5v251.5c-188.4 36.2-606.2 165.1-784.1 246-1.4 0.6-3.2 0.4-1.1-2.5 102.2-137.5 285.4-329.3 450.1-464.9 1.1-0.8 2-1.7 2.6-2.8 0.7-1.2 1.2-2.4 1.4-3.7 0.1-1.3 0.1-2.6-0.3-3.8-0.3-1.3-0.9-2.5-1.7-3.5-22.3-28.7-104-133.7-129.3-163.9-4.4-5.2-7.8-8-15.3-6-239.6 63-768.2 285.1-997 428.5zm244.2 452.8c-3.8-4.7-4.1-7.1 0.8-14.8 106.2-164.5 323.1-420.3 461.4-528.7 2.5-2 1.8-3.7-1.1-2.7-144.1 49.7-553.6 235.4-705.2 325.9v587.3h1474.6v-565.3c-201.4 36.1-803.3 224.9-1077 373.7-5 3.4-11.9 2.4-15.9-2.5z"/>
</svg>